<?xml version="1.0" encoding="UTF-8"?>
<svg id="Layer_1" xmlns="http://www.w3.org/2000/svg" version="1.1" viewBox="0 0 919.83 1184.72">
  <!-- Generator: Adobe Illustrator 29.4.0, SVG Export Plug-In . SVG Version: 2.1.0 Build 152)  -->
  <defs>
    <style>
      .st0 {
        isolation: isolate;
      }

      .st1 {
        fill: #ee6544;
      }
    </style>
  </defs>
  <g>
    <path class="st1" d="M809.87,369.34c-11.11-6.79-36.11-7.64-48.65-14.81-7.17-20.49-14.67-33.87-35.86-41.01l-35.27-2.82c-.89.13-1.96-.17-2.81,0,1.03,4.56-3.33,2.46-7.06,2.82-12.59,4.04-20.71,9.06-30.3,18.41-15.09-4.02-30.16-8.95-45.87-9.95-5.51,2.39-15.93,2.34-21.15,0-6.99.48-23.68,2.37-26.17,9.78-3.97,11.77,6.24,14.06,15.76,12.86,2.1-.27,3.18-1.47,3.36-1.48.49-.07,2.05-1.27,4.79-1.51,6.08-.54,13.02.56,19.21.13-.18.65-1.41,1.17-1.43,1.38-.07.64,0,1.2.71,1.4h4.94c-.48,7.79-3.4,4.93-8.47,5.65-.99,3.22-3.64,2.75-6.27,2.91-7.96.45-16.14-.49-24.11-.14-5.46.24-12.54,3.76-17.58.06-5.56,1.78-8.44,5.22-7.04,11.28,4.09,1.37,8.89,5.65,13.4,5.65h38.78c1.57,4.81-2.75,7.82-6.96,9.16-.86.27-1.43-.72-1.5-.71-3.76,1-8.23,2.48-12,2.81-8.64.73-24-4.55-28.74,3.68-11.73,20.33,33.62,18.48,44.66,15.06,24.52-7.61,30.1-32.3,53.9-38.49-.68,9.67-3.97,20.88,2.17,29.56,1.68,2.37,6.16,4.38,6.37,5.28,1.54,6.66-5.2,10.96.08,22.14,5.56,11.76,15.3,4.19,7.91,19.48-4.53,9.35-23.44,31.68-34.1,31.96-1.34.04-10.17-2.37-10.45-2.82-1.19-1.81.92-14.84-2.72-21.97-9.98-19.54-34.56-20.32-50.94-8.05-2.7,2.02-3.92,4.59-5.76,6.23-3.15,2.78-7.81-.17-11.94-.08-5.46.08-10.87.88-16.26,1.5-1.4.16-5.1,1.91-5.63,1.41-8.49-43.22-57.52-38.29-67.8,1.38-10.53-3.01-26.09-1.38-35.08,5.05-2.6,1.86-6.14,7.69-6.65,7.76-2.53.4-15.5-4.55-22.31-4.36-11.61.32-34.59,6.62-42.44,15.47-4.63,5.22-8.68,26.94-9.15,34.56-.54,8.64.24,16.53,2.88,24.72-7.99,1.47-15.04,7.04-21.18,12-3.5,2.81-10.48,12.76-14.68,12.1-4.57-7.36-9.19-14.74-12.79-22.69-10.41-23-29.82-66.4-36.04-89.48-1.12-4.18-2.72-5.48.72-9.28,11.44-12.58,33.7-11.41,44.99-18.48,5.96-3.73,7.38-15.97,1.37-17.92-.69-.23-11.52-1.31-12.24-1.21-2.85.41-16.96,4.49-20.92,5.68-6.62,2-15.11,8.29-20.95,10.11-1.72.55-2.09,1.41-3.47-.71l-13.19-61.02c1.28-4.55,20.46-16.24,25.34-18.48,6.42-2.95,19.02-5.08,23.15-7.86,4.87-3.28,6.18-14.97.66-17.72-12.14-6.08-39.57,9.91-49.37,17.65.24-68.18,57.86-102.55,117.31-116.11,80.54-18.35,136.79-3.37,154.51,83.34,1.68,8.19,3.18,39.91,11.24,42.37,2.12.65,5.83.69,7.93.01,3.6-1.14,8.09-8.85,7.91-12.92-.65-13.61-6.58-39.55-10.48-53.11-13.21-46.04-48.2-83.51-98.02-87.45-7.58,2.34-18.04,1.74-26.1,1.41-1.72-.07-5.25,1.06-4.91-1.4,7.95.21,16.02-.35,23.96-.01-6.3-3.28-15.04-.51-21.88-1.41-1.41-.18-3.06.37-2.08-2.09.48-1.2,5.31-8.88,6.42-10.52,8.08-11.79,20.61-22.43,29.41-34.05,12.81-16.93,29.39-44.59,6.47-60.54l-10.55-2.85-20.49.04c-7.55,2.15-12.85,5.11-19.74,8.46v-26.09c0-1.47-3.13-12.2-3.98-14.37-3.6-9.32-12.66-20.64-22.83-23.01-7.65-1.78-14.5-.64-21.84,0-2.32.2-2-1.41-2.13-1.4-17.38,1.96-45.45,39.32-42.31,57.81-1.21,1.27-18.82-10.65-22.28-12.27-10.38-4.88-16.08-3.52-24.61-6.17-1.3-.41-.59-2.5-3.09-2.82-20.57-2.64-53.2,8.03-62.15,28.32-15.36,34.77,29.28,52.1,54.3,62.08.42,3.71-.07,2.23-2.06,2.82-17.56,5.28-38.7,13.19-39.93,34.97-1.82,32.02,38.09,25.82,57.79,30.31,7.58,1.72,13.67,5.68,20.87,8.06,1.75,2.37-9.25,8.7-11.29,10.55-13.98,12.64-30.72,31.17-38.06,48.67-3.81,9.09-7.21,25.14-8.46,35.27,2.33,8.75,1.41,19.5,1.45,28.83.01,4.55,1.07,11.04-1.45,14.89,2.6,23.7,9.93,46.7,15.53,69.79-5.65,1.57-11.39,3.02-16.94,4.97-40.82,14.32-87.39,47.71-91.68,94.49,2.39,6.01,2.34,16.86,0,22.57,4.93,53.97,64.92,86.42,111.42,99.43,10.43,2.91,22.19,3.74,31.67,6.41,1.54.44,2.6.42,3.56,2.05-13.29,17.77-25.07,41.31-39.49,57.79-4.69,5.35-16.66,17.63-22.24,9.35-21.26-9.11-38.74-25.1-59.54-35.39l-17.62-4.32-16.22,2.91c-21.52,12.83-53.38,66.28-66.31,89.55-8.25,14.82-29.75,47.54-8.94,59.75,18.3,10.73,47.96-7.47,63.57-17.8,11.76-7.79,22.59-16.7,32.12-27.09,21.15,19.27,49.71,34.96,78.29,39.46,6.51-3.08,14.37.17,21.93.07,5.59-.07,11.04-2.2,16.74-1.6l23.38-6.93c38.15-18.64,64.04-59.13,89.57-91.66,14.56,21.69,37.86,71.55,63.87,79.97,32.87,10.65,47.44-18.16,60.64-41.51.71-1.24-.51-2.39,2.23-1.64,3.16.85,16.87,12.34,19.99,15.3,32.95,31.22,44.77,78.45,69.18,115.59,13.5,20.53,28.38,35.69,54.95,26.95,24.1-7.91,95.54-68.8,103.88-92.16,5.84-16.33-1.75-31.91-18.59-36.23h-25.4c-1.34.44-2.05,1.1-2.81,1.4-2.17.86-6.18,4.91-8.47,1.41-13.68,4.49-26.94,12.06-39.43,19.16-1.44.66-2.94,1.02-4.36,0-1.61-1.16-9.54-22.73-11.41-26.71-22.24-47.49-44.75-79.29-88.48-108.99-4.59-3.11-18.64-9.54-21.36-12.49-1.88-2.03-1.74-7.41.34-8.88,1.37-.99,18.24-3.97,22.25-5.24,45.5-14.53,82.38-49.68,100.32-93.6,37.05-6.56,64.38-39.07,83.62-69.42,20.97-33.09,37.67-73.4,40.32-112.71,9.91,1.57,39.73,13.6,47.56,10.24,6.88-2.95,8.8-13.54,1.68-17.89h-.02ZM210.98,105.03c-20.16-12.04-18.51-24.16,3.8-31.3-.79-3.39,1.78-3.12,4.14-3.54,9.93-1.81,18.95-1.26,28.31,2.13,19.34,7.02,36.72,20.78,45.9,39.43,4.11,8.33,7.65,31.57,22.6,22.72,11.68-6.89-.24-26.54-2.61-35.65-3.6-13.89-4.86-30.85,2.09-43.85,7.37-13.81,28.48-34.28,41.25-15.01,5.08,7.65,4.33,29.04,3.43,38.54-1.07,11.21-12.49,40.97-8.97,48.81,1.23,2.74,6.64,5.45,9.63,5.25,10.31-.66,14.41-16.56,20.7-24.24,6.93-8.49,21.98-20.06,33.28-20.4,15.09-.44,2.81,18.18-1.14,24.34-9.91,15.46-25.96,27.81-36.13,42.83-5.99,8.82-8.94,17.97-13.53,27.39l-39.95,9.47c-3.47.13-6.97-10.91-9.12-14.27-27.8-43.41-63.96-48.92-103.67-72.65h-.01ZM218.23,181c-11.62-1.47-3.2-9.74,2.61-13.05,8.29-4.72,26.37-6.64,35.78-6.24,18.72.8,35.85,17.34,42.88,33.95.58,1.38,2.02,1.61.69,3.64-.64.97-9.95,5.6-11.17,5.38-.99-.2-12.55-10.28-15.98-12.21-19.33-10.81-34.34-8.89-54.81-11.48h0ZM532.36,465.39c23.18-6.75,9.37,11.18,13.16,18.79,3.8,7.64,16.28.21,19.36-6.04,5.7-11.59-.24-29.49,20.03-26.32,9.9,1.55,9.35,15.05,3.2,20.64-6.17,5.62-21.32,5.87-19.06,20.51,2.05,13.31,16.65,3.76,18.09,13.14.59,3.83-6.72,24.99-9.33,25.89-6.38,2.2-8.94-11.2-12.66-16.67-12.23-18-30.78-21.66-51.35-17.05-.88-11.66,6.66-29.44,18.57-32.9h0ZM549.06,536.36c-2.96-.3-5.68.85-8.47,1.41-9.39,1.89-18.4,1.6-28.21,1.41-4.22-.08-8.47.07-12.69,0,4.36-22.79,46.07-29.52,49.37-2.82h0ZM424.87,470.84c4.5-2.72,10.98-5.03,16.29-5.1,8.57-.14,16.57,6.92,24.34,3.29,6.79-3.19,7.98-32.03,24.88-29.96,6.32.78,8.23,6.55,9.19,12.07,2.67,15.3-1.67,19.74-4.11,33.04l1.06,23.66c.38,1.07-.89,1.38-1.06,1.72-1.91,3.78-7.14,8.12-9.63,12.24-1.81,3.02-5.42,13.95-6.08,14.37-1.79,1.16-9.61-.4-12.51.2-.66-5.9.92-11.05,2.47-16.59,2.47-8.82,17.56-29.27,3.59-32.49-8.6-1.98-11.87,2.16-15.95,8.82-1.37,2.23-4.07,13.06-6.99,10.62-3.54-7.65-8.94-15.25-14.17-21.81-2.77-3.47-12.01-9.93-11.31-14.09h0ZM361.69,489.32c.73-3.83,10.56-9.11,14.6-9.44,21.08-1.79,45.36,16.96,51.46,36.75-5.6-5.44-14.08-19.16-22.67-12.1-8.25,6.78,9.36,19.84,7.16,21.95-10.89,1.67-52.05-29.37-50.54-37.16h0ZM263.45,516.59l18.82,41.97c1.64,11.34-29.75,4.22-36.47,2.48-9.87-2.56-35.3-10.62-28.89-24.66,3.37-7.37,26.02-19.64,34.18-20.81,3.2-.45,10.28-1.48,12.35,1.02h.01ZM144,561.29c-26.1-60.3,37.17-109.56,90.47-117.97l18.4,49.3c-19.09,6.56-46.76,16.96-55.02,36.69-1.43,9.42-2.98,17.87,1.41,26.8,11.07,18.51,38.35,26.81,59.24,28.21,9.84.66,24.04.71,33.86,0,12.01-.88,21.11-6.61,30.28-14.15,4.05-3.35,24.66-27.69,28.66-14.49,5.46,18.04-35.42,32.4-12.42,43.46,11.01,5.28,27.4,7.98,39.52,9.15,6.54.64,16.87,1.51,23.27,1.51,6.41-.01,13.51-3.53,19.05-.1,2.39-.41,4.69-.93,7.04-1.4-.2,1.67.55,4.07-.24,5.41-.56.97-18.34,7.99-20.91,8.68-8.91,2.41-17.77,1.96-26.8,0-8.05-1.74-28.48-12.35-26.91,3.56.95,9.57,20.12,14.1,28.32,14.78,5.29-2.8,13.98-1.84,19.74,0,1.1.35,4.09-.88,2.13,1.41-8.17,5.48-22.84,11.32-32.56,9.98-2.51-.35-1.84-2.53-3.06-2.84-16.38-3.98-30.17-8.95-45.83-13.16-17.82-4.79-28.21-2.65-45.49-3.88-42.31-3.01-114.13-29.37-132.15-70.96h0ZM328.99,731.67c-22.01,27.69-45.28,59.06-78.95,72.68-13.13,5.31-25.09,5.62-39.07,3.01-2.61-.48-5.49,1.21-4.66-3.01-24.89-5.15-46.76-18.73-66.14-34.7-1.98-1.62-2.61-4.52-5.24-6.06-11.21-6.55-17.34,6.95-24.51,13.27-18.04,15.91-39.94,31.3-63.49,37.36-2.06-2.13,17.34-35.34,20.02-39.93,10.22-17.49,24.62-41.89,37.22-57.28,7.51-9.16,14.58-19.21,27.46-13.57,35.49,15.57,69.94,66.02,107.85,23.34,19.23-21.66,31.29-50.56,51.05-71.65,7.72-2.27,35.18,2.1,41.28,7.5,5.17,4.57,12.4,35.99,18.25,43.55-9.08,6.49-14.2,16.81-21.08,25.48h0ZM468.45,748.43c-4.77,11.29-18.92,39.71-32.91,39.09-16.08-.72-38.57-38.1-45.86-51.49,7.62-5.42,16.69-9.9,25.68-12.48,8.73-2.48,41-5.01,43.2-13.31.96-3.57-2.15-10.89-5.45-12.35-13.43-6.01-59.51,11.59-72.47,20.33l-23.42-47.85c19.6,2.05,35.99,2.22,53.62-7.75,3.84-2.16,9.12-7.45,11.29-8.46,4.24-1.98,41.27,5.65,50.05,6.31,6.3.47,12.73-.32,19.03.01-6.03,29.31-11.04,60.24-22.77,87.94h0ZM532.01,703.62c40.55,28.77,60.54,65.82,79.78,110.62,3.5,8.13,8.06,33.5,20.51,30.41,2.85-.69,13.3-8.74,17.35-10.91,14.39-7.74,43.05-22.97,59.17-19.2,11.69,2.75-2.13,18.24-6.72,23.69-13.72,16.25-61.85,58.94-81.38,63.9-12.85,3.25-20.25-8.67-26.58-18.04-25.05-37.05-36.85-81.96-68.25-115.81-8.92-9.61-21.56-20.49-33.26-26.01,5.17-7.03,11.38-48.95,15.49-51.53,3.56-2.24,19.94,10.09,23.89,12.89h0ZM608.02,569.24c-22.6,37.5-63.93,66.31-108.33,70.08l.72,1.41h-32.49l.73-1.41-25.4-4.24c5.05-12.66,11.03-28.07,3.91-41.27-8.06-14.94-22.02-6.31-34.25-5.29-6.3.52-24.1,1.09-29.61.03-3.64-.69-9.6-12.21-14.91-13.61,10.28-21.33-6.76-35.3-8.34-55.51,22.02,21.63,52.15,29.11,81.8,33.86,3.7-3.09,10.35-.65,14.81.06,2.63.41,5.73-1.79,4.93,2.77,40.87,4.67,91.94,4.42,131.12-9.23,10.63-3.7,19.67-9.91,29.66-14.74,3.3,3.76-11.35,32.09-14.36,37.1h0ZM604.07,523.67c.41-5.65,2.95-10.35,2.92-16.22-.03-9.29-6.71-13.65,2.03-21.9,1.47.03,8.41,4.94,9.98,6.3,20.61,17.9-1.12,22.32-14.94,31.82h0ZM703.93,476.15c-14.41,23.58-32.92,45.5-57.55,58.8-.88-1.16,4.04-24.5,3.92-28.91-.1-4.72-5.72-18.54-4.73-20.44.65-1.24,17.32-15.3,20.58-19,6.92-7.88,13.44-17.44,18.54-26.6,1.98-3.54,9.04-16,9.33-18.9,1.47-14.27-17.03-6.75-20.16-13.06-2.64-5.35.52-12.38,4.94-15.53,3.67-2.61,18.3-2.12,22.58,0,4.04-.97,4.4-6.82,2.05-9.78-1.19-1.47-11.1-6.44-13.34-7.14l-22.56,1.41c-8.22-.04,2.98-11.63,7.04-14.1,8.74-5.28,17.97-3.2,26.81,0,6.85,2.5,17.96,8.46,16.98-4.93-1.06-14.4-26.33-11.62-36.78-14.09-13.54-3.19-.13-9.63,7-11.39,17.45-4.31,40.21-1.31,47.75,17.31,13.37,33.02-14.58,97.22-32.42,126.37l.02-.02h0Z"/>
    <path class="st1" d="M480.63,396.82c-4.32-.13-11.11-1.79-15.42-2.99-3.08-.85-11.39-5.39-12.55-5.29-2.77.21-8.17,6.37-11.46,8.24-22.28,12.68-50.7,10.6-72.26-2.6-8.85-5.42-32.18-27.22-16.46-35.34,12.83-6.64,16.93,6.64,24.62,13.09,23.61,19.85,64.27,14.32,70.05-19.96,1.21-7.17-2.09-17.87,7.31-20.88,6.24-2,9.66-.41,12.78,5-.68,6.9.55,14.19,0,21.16-.45,5.63-1.64,8.8-2.81,14.06,10.91,6.93,29.59-3.5,36.68,6.35,9.29,12.92-9.94,19.48-20.49,19.16h0Z"/>
    <path class="st1" d="M393.5,310.27c-10.62,8.57-15.3-6.01-21.11-8.39-6.75-2.74-17.61-.34-22.24,5.25-4.14,4.98-1.96,14.17-11.96,13.58-12.65-.76-10.08-18.86-4.14-26.85,10.8-14.56,36.54-18.88,51.88-9.77,7.92,4.7,16.46,18.97,7.55,26.17h.02,0Z"/>
    <path class="st1" d="M475.69,304.31c-11.15,5.1-10.79-6.35-14.47-10.17-3.04-3.12-11.66-3.73-15.87-3.23-12.75,1.5-9.59,13.19-17.59,16.96-5.49-2.26-10.45-1.88-11.28-9.3-.44-3.84,2.6-7.72-.01-10.45,8.17-22.11,50.53-27.14,62.35-5.22,3.4,6.31,4.36,18-3.12,21.42h-.01Z"/>
    <path class="st1" d="M585.81,379.1c-.86.27-1.43-.72-1.5-.71l7.04-5.63h-30.33c-1.58,0-12.38-2.02-14.2-2.72-2.16-.83-5.73-3.53-6.24-5.75,4.09,1.37,8.89,5.65,13.4,5.65h38.78c1.57,4.81-2.75,7.82-6.96,9.16h0Z"/>
    <path class="st1" d="M595.6,350.18c-.99,3.22-3.64,2.75-6.27,2.91-7.96.45-16.14-.49-24.11-.14-5.46.24-12.54,3.76-17.58.06,11.77-3.76,33.5-.76,47.96-2.82h0Z"/>
    <path class="st1" d="M269.78,818.45c-20.6,10.07-39.42,12.03-62.05,8.46,6.51-3.08,14.37.17,21.93.07,5.59-.07,11.04-2.2,16.74-1.6l23.38-6.93h0Z"/>
    <path class="st1" d="M725.36,313.52l-35.27-2.82c14.81-2.23,21.37-1.88,35.27,2.82Z"/>
    <path class="st1" d="M433.39,70.91l-10.55-2.85-20.49.04c12.76-3.64,19.47-5.22,31.03,2.81h.01Z"/>
    <path class="st1" d="M142.84,684.46l-17.62-4.32-16.22,2.91c14.91-8.89,19.41-5.73,33.84,1.41h0Z"/>
    <path class="st1" d="M554.7,443.28c-3.15,2.78-7.81-.17-11.94-.08-5.46.08-10.87.88-16.26,1.5,8.19-5,19.31-3.83,28.21-1.41h-.01Z"/>
    <path class="st1" d="M467.25,357.24c.55-6.97-.68-14.26,0-21.16,3.47,6.04,4.5,15.37,0,21.16Z"/>
    <path class="st1" d="M355.81,13.08c-7.65-1.78-14.5-.64-21.84,0-2.32.2-2-1.41-2.13-1.4,7.13-2.27,17.63-2.89,23.97,1.4Z"/>
    <path class="st1" d="M715.49,793.07h-25.4c7.58-2.48,17.62-2,25.4,0Z"/>
    <path class="st1" d="M422.11,179.52c-7.58,2.34-18.04,1.74-26.1,1.41-1.72-.07-5.25,1.06-4.91-1.4,7.95.21,16.02-.35,23.96-.01,2.34.1,4.73-.18,7.06,0h-.01Z"/>
    <path class="st1" d="M599.85,341.75c-.18.65-1.41,1.17-1.43,1.38h-22.57c.49-.07,2.05-1.27,4.79-1.51,6.08-.54,13.02.56,19.21.13Z"/>
    <path class="st1" d="M117.46,544.83c-.56-6.11-.56-16.46,0-22.57,2.39,6.01,2.34,16.86,0,22.57Z"/>
    <path class="st1" d="M604.05,321.97c-5.51,2.39-15.93,2.34-21.15,0,6.34-.44,14.8-.41,21.15,0Z"/>
    <path class="st1" d="M427.76,307.87c-2.15,1-3.12,1.76-5.69.88-8.47-2.92-8.26-13.44-5.6-20.63,2.61,2.72-.42,6.61.01,10.45.83,7.43,5.79,7.04,11.28,9.3h0Z"/>
    <path class="st1" d="M687.28,794.47c-2.17.86-6.18,4.91-8.47,1.41,2.88-.95,5.27-2.05,8.47-1.41Z"/>
    <path class="st1" d="M680.22,313.52c2.1-.68,4.6-2.34,7.06-2.82,1.03,4.56-3.33,2.46-7.06,2.82Z"/>
    <path class="st1" d="M210.55,353.01c-1.67-15.2-1.87-28.53,0-43.72,2.33,8.75,1.42,19.5,1.46,28.83.02,4.55,1.07,11.05-1.46,14.9h0Z"/>
    <path class="st1" d="M420.7,609.71c-13.57,2.34-29.01,2.54-42.31-1.41,6.54.63,16.88,1.51,23.27,1.5,6.41,0,13.51-3.52,19.04-.09Z"/>
    <path class="st1" d="M250.04,804.35c-13.13,5.31-25.08,5.63-39.06,3.02-2.62-.49-5.49,1.21-4.67-3.02,15.83,3.28,27.79,3.64,43.72,0h.01Z"/>
    <path class="st1" d="M247.22,72.33c-12.13-1.88-20.65-2.36-32.44,1.41-.8-3.39,1.78-3.12,4.14-3.55,9.92-1.8,18.94-1.26,28.3,2.14h0Z"/>
    <path class="st1" d="M468.66,639.33c10.09-.62,21.07.85,31.03,0l.73,1.41h-32.49l.73-1.41Z"/>
    <path class="st1" d="M292.35,584.32c-10.1,2.37-23.75,2.37-33.85,0,9.84.66,24.04.71,33.85,0Z"/>
    <path class="st1" d="M495.45,509.56c-2.87-7.92-1.47-17.37,0-25.39l1.07,23.66c.38,1.09-.9,1.39-1.07,1.73h0Z"/>
    <path class="st1" d="M441.86,553.29c3.71-3.09,10.35-.65,14.82.05,2.62.41,5.72-1.79,4.92,2.77-6.55-.75-13.23-1.78-19.75-2.82h.01Z"/>
    <path class="st1" d="M690.1,375.57l-22.57,1.41c5.12-4.79,16.44-3.31,22.57-1.41Z"/>
    <path class="st1" d="M540.59,537.77c-9.38,1.89-18.39,1.6-28.21,1.41,8.55-3.22,19.17-.57,28.21-1.41Z"/>
    <path class="st1" d="M406.6,622.4c-8.91,2.41-17.77,1.95-26.8,0h26.8Z"/>
    <path class="st1" d="M701.38,392.5c-5.77,1.38-16.14-1-22.57,0,3.67-2.61,18.29-2.12,22.57,0Z"/>
    <path class="st1" d="M400.96,640.74c-6.46-.38-13.36.53-19.75,0,5.3-2.79,13.98-1.84,19.75,0Z"/>
    <path class="st1" d="M199.26,556.11c-.39-.66-2.06-1.08-2.93-3.35-3.46-9-2.05-14.92,1.52-23.45-1.44,9.41-2.98,17.88,1.41,26.8Z"/>
    <path class="st1" d="M701.38,362.88c-8.83-2.03-17.95-2.03-26.8,0,8.73-5.28,17.97-3.21,26.8,0Z"/>
  </g>
  <g class="st0">
    <g class="st0">
      <path class="st1" d="M84.45,1025.42c8.12-9.09,18.18-27.6,32.15-27.6,5.85,0,12.99,4.22,12.99,10.72,0,2.92-2.92,8.12-4.87,10.39-14.94,17.54-31.82,34.74-44.16,54.55-2.92,4.55-3.57,10.07-3.57,15.59,0,20.78,3.57,41.24,3.57,62.02,0,10.39-6.82,14.94-16.56,14.94-17.86,0-15.59-20.46-15.59-32.8,0-18.19-1.3-37.02-2.6-55.53-1.95-28.25-37.67-47.41-37.67-75.01,2.6-5.2,8.77-7.14,13.96-7.14,2.27,0,4.22.33,6.17.97,4.87,1.62,9.74,12.99,12.34,17.21,7.79,11.69,15.59,23.05,24.68,33.45,8.44-2.27,13.31-15.26,19.16-21.76h0Z"/>
      <path class="st1" d="M185.11,1028.02c-1.95,19.16-4.22,38.32-6.49,57.15-1.3,9.09-2.92,19.16-2.92,28.25,0,4.87,0,19.16,3.25,22.73,3.57,4.22,8.77,7.47,14.29,7.47,11.04,0,19.48-2.27,22.41-13.96,4.22-15.59,7.47-31.82,10.07-47.73,1.95-11.04,3.57-22.08,4.87-33.12,1.3-9.42,3.9-47.73,10.72-53.9,2.27-2.27,5.2-4.22,8.77-4.22,8.12,0,13.31,9.42,13.31,16.56,0,13.96-2.6,27.93-3.9,41.89-2.27,22.08-13.96,101.96-30.52,113.65-9.42,6.49-20.78,11.37-32.15,11.37-4.87,0-9.74-.65-14.61-1.95-25.33-5.85-35.07-16.56-35.07-42.87,0-31.82,3.9-64.62,7.79-96.12,1.3-10.39,1.95-22.41,4.87-32.47,2.6-7.79,5.85-12.66,14.61-12.66,6.82,0,13.31.97,13.31,9.74,0,10.07-1.62,20.13-2.6,30.2h-.01Z"/>
      <path class="st1" d="M409.17,1047.18c9.42-8.77,21.43-13.96,31.17-22.41,1.62-.32,3.25-.65,5.2-.65,6.49,0,13.64,2.6,18.18,7.47,5.52,28.58,15.26,81.83,29.55,107.16.97,10.71-12.66,10.71-19.48,10.71-4.87,0-9.09-.97-11.37-5.84-9.74-23.71-20.13-57.8-24.68-83.13-.65-.65-1.3-1.3-2.27-1.3-1.62,0-3.9,2.6-5.52,3.57-12.66,16.88-25.33,35.39-35.39,53.9-2.6,5.2-5.2,11.37-11.37,13.31-2.92.97-5.84,1.62-9.09,1.62-2.27,0-6.49-.65-8.44-2.6-3.57-3.9-18.83-45.46-21.11-52.93-1.3-3.9-.97-8.12-4.87-10.71-9.09,13.96-16.56,28.9-23.06,44.49-1.95,4.22-7.14,19.48-9.09,22.41-1.62,2.6-6.82,2.92-9.74,2.92h-2.6c-4.22-1.62-7.47-5.85-10.39-9.42,1.62-12.66,8.12-24.03,12.99-35.72,6.82-15.91,16.56-30.2,24.68-45.46,2.6-5.2,5.2-10.39,7.14-15.59.65-2.27,1.3-5.2,2.27-7.14,2.27-4.87,8.44-9.09,13.64-9.09,12.34,0,17.54,19.48,19.16,29.22,1.62,10.39,9.42,34.75,13.96,44.49,11.69-11.69,18.18-27.6,30.52-39.29h0Z"/>
      <path class="st1" d="M583.86,1012.76c-4.87,0-9.74-1.3-14.94-1.3-4.87,0-9.74.97-13.64,4.55-10.72,10.71-14.94,34.1-14.94,48.71s11.04,41.56,26.3,45.14c4.22.97,8.77.97,12.99.97,7.79,0,15.26-.97,23.06-1.95-.97-12.66-1.95-25.65-1.95-38.64,0-5.2-.33-25.65,6.17-27.6,2.6-.97,5.2-1.62,7.79-1.62,3.57,0,6.82,1.95,9.74,4.22,5.84,4.87,6.82,16.56,7.47,23.71,2.27,25.33,4.87,50.98,5.52,76.63v4.87c.33,13.96-5.84,25.65-21.43,25.65-10.39,0-12.99-29.88-13.31-38.32-.97-.97-1.95-1.62-3.57-1.62-2.6,0-5.2,1.3-8.12,1.3-5.2.32-10.39.97-15.59.97-16.89,0-37.02-3.57-48.06-17.21-11.37-14.29-15.26-41.24-15.26-58.78,0-39.94,19.48-76.63,63.65-76.63,8.12,0,27.93,3.25,27.93,13.96,0,6.82-14.29,12.99-19.81,12.99h0Z"/>
      <path class="st1" d="M771.23,1112.12c-10.72,17.86-38.64,39.94-60.07,39.94-1.62,0-3.25-.33-4.87-.65-32.47-6.17-48.71-30.52-48.71-62.67,0-14.29,2.92-35.07,12.01-46.44,12.99-16.23,38.32-32.15,59.75-32.15s32.47,1.95,45.46,20.13c6.82,9.42,8.44,22.41,8.44,33.77,0,15.59-3.57,34.42-12.01,48.06h0Z"/>
    </g>
  </g>
  <g class="st0">
    <g class="st0">
      <path class="st1" d="M608.95,238.72l-9.71-11.53c-3.57,2.02-7.63,4.21-12.19,6.42,1.14,4.14,2.57,8.71,4.25,13.67-1.67.88-3.1,1.36-4.29,1.43l-.73-2.1c-.56-1.89-1.76-5.57-3.38-10.99-1.4.68-3.07,1.41-4.96,2.26-1.06-1.44-1.65-2.81-1.84-4.09,2.01-.91,3.85-1.73,5.61-2.58-2.22-8.45-4.57-18.5-6.96-30.26l4.03-4.05c13.9,15.42,25.13,28.44,33.63,38.97-.62,1.1-1.77,2.01-3.46,2.83v.02ZM580.19,205.03c2.07,9.32,3.95,17.36,5.72,24.15,3.71-1.87,7.19-3.78,10.38-5.54-5.36-6.28-10.68-12.5-16.1-18.61h0Z"/>
    </g>
  </g>
  <g class="st0">
    <g class="st0">
      <path class="st1" d="M638.04,228.01c-1.63-3.46-3.08-6.49-4.28-9.39-.61,2.66-1.69,4.85-3.27,6.7-1.51,1.83-3.34,3.01-5.28,3.55-4.82,1.33-8.21-1.44-10.15-8.44-.61-2.19-1.21-5.12-1.91-8.84-.42-2.51-.85-5.02-1.34-7.51,1.88-.52,3.29-.78,4.3-.79,1.39,6.96,2.38,11.54,2.99,13.73.66,2.38,1.23,3.97,1.81,4.82,1.05,1.6,2.48,2.14,4.17,1.68,1.25-.35,2.45-1.15,3.56-2.47,1.05-1.3,1.7-2.63,1.89-3.89.07-.96-.04-2.82-.27-5.59-.19-2.64-.43-4.46-.67-5.61,1.48-.75,2.86-1.13,4.23-1.03.86,3.6,1.92,6.95,3.16,9.97,1.33,3.34,2.96,7.06,4.97,11.16-.8.76-2.11,1.39-3.91,1.96h0Z"/>
    </g>
  </g>
  <g class="st0">
    <g class="st0">
      <path class="st1" d="M654,202.72c.11.97.7,5.74,1.64,14.39.5,4.58,1.72,6.74,3.66,6.52,1.87-.21,3.04-2.03,3.51-5.48,1.15-.26,2.22.02,3.23.89-.89,6.76-3.31,10.36-7.18,10.78-.52.06-1.11.06-1.7-.01-3.23-.3-5.14-3.36-5.71-9.17-.13-1.23-.45-4.07-.87-8.53l-.94-8.59c-.64.14-3.78.68-5.76,1.09l-.49-4.45c1.42-.16,4.56-.76,5.57-1-.34-3.1-.61-5.55-.67-7.31-.31-4.02-.54-9.09-.75-15.14,1.79-.39,3.29-.42,4.5-.1l.11,2.21c.12,2.27.26,6.51.62,12.8.04,1.56.28,3.76.59,6.6,3.32-.69,6.71-1.39,10.1-2.02l2.18-.37c.71,1.1,1.02,3.35.89,5.13-2.74.63-6.98.7-12.55,1.77h.02Z"/>
    </g>
  </g>
  <g class="st0">
    <g class="st0">
      <path class="st1" d="M697.54,227.15c-.33.11-1.5.05-3.12-.11l.27-2.46c.26-3.5.3-7.66.11-12.35-.2-5.74-.82-9.61-1.75-11.61-.87-1.81-1.86-2.77-3.03-2.84-1.29-.14-2.78.82-4.32,2.81-1.19,1.49-2.13,3.13-2.88,4.85l-.54,1.4c.2,4.56.64,10.51.95,17.81l.13,2.28c-1.52.37-3.02.48-4.44.27l-.13-2.28c-.29-6.46-.87-14.56-1.22-24.4-.07-3.32-.87-15.66-2.74-30.99,1.45-.37,3.79-.31,5.33.04l.07,2.15c.35,6.52,1.17,18.54,1.71,27.35,3.92-4.85,7.3-7.26,10.1-7.3,1.88.04,4.49,2.27,6.01,6.45,1.23,3.52,2.56,12.24,1.3,26.55-.1.64-.11,1.88.04,2.73,0,0-.75-.56-1.87-.37l.02.02Z"/>
    </g>
  </g>
  <g class="st0">
    <g class="st0">
      <path class="st1" d="M725.86,226.46c1.2.28,2.43.44,3.8.57-.79,2.22-2.23,4.34-4.26,6.47l-2.06-.89c-2.66-1.16-5.18-2.63-7.4-4.55-3.12-2.61-5.03-5.53-5.88-8.73-1.11-4.33-1.17-8.62-.17-12.85.63-2.65,1.73-5.06,3.15-7.13,4.2-6.21,8.82-8.53,13.79-6.95,7.91,2.4,10.38,9.46,7.44,21.04l-20.58-1c-.02,7.4,4.08,12.11,12.17,14.02ZM730.2,201.6c-.42-2.44-1.96-4.13-4.71-4.92-2.48-.79-4.94.3-7.38,3.26-2.06,2.52-3.37,5.21-3.98,8.07l15.37.76c.71-3.3.95-5.71.69-7.17h.01Z"/>
    </g>
  </g>
  <g class="st0">
    <g class="st0">
      <path class="st1" d="M756.07,243.24l-4.66-3.14c.83-1.27,1.98-3.95,3.44-6.51,1.48-2.62,3.28-5.16,4.21-6.67,1.97-3.25,6.02-8.58,2.35-12.21-3.05-2.94-9.67.79-13.4,2.72l-1.62,3.76-3.85,7.96c-1.26,2.78-2.61,6.23-2.61,6.23l-4.33-1.44s5.23-10.69,7.04-14.72c1.86-4,5.61-15.19,5.61-15.19.85.15,2.86.74,4.46,1.63,0,0-1.19,3.09-2.64,6.64,3.7-2.37,10.27-5.62,14.7-1.31,6.13,5.96,1.41,12.83-1.92,18.26-1.7,2.8-5.62,10.59-6.79,13.98h.01Z"/>
    </g>
  </g>
  <g class="st0">
    <g class="st0">
      <path class="st1" d="M784.13,231.23c-.53.82-3.07,4.9-7.78,12.21-2.5,3.88-2.91,6.32-1.27,7.37,1.58,1.02,3.64.34,6.18-2.05,1.05.52,1.72,1.41,1.95,2.72-4.95,4.69-9.09,5.97-12.37,3.86-.44-.28-.89-.65-1.31-1.08-2.32-2.27-1.88-5.84,1.34-10.72.67-1.04,2.21-3.44,4.69-7.17l4.67-7.26c-.58-.3-3.36-1.85-5.16-2.78l2.42-3.77c1.2.77,4.02,2.28,4.96,2.73,1.69-2.62,3.02-4.7,4.08-6.1,2.29-3.31,5.3-7.4,8.95-12.23,1.63.82,2.82,1.74,3.56,2.75l-1.3,1.79c-1.34,1.84-3.9,5.21-7.58,10.34-.95,1.24-2.15,3.1-3.7,5.5,3.02,1.55,6.09,3.14,9.12,4.79l1.93,1.09c-.14,1.3-1.32,3.25-2.54,4.54-2.52-1.24-5.86-3.85-10.86-6.53h.02Z"/>
    </g>
  </g>
  <g class="st0">
    <g class="st0">
      <path class="st1" d="M790.35,264.91c4.25-5.59,9.91-13.56,16.87-23.99,1.44.61,2.71,1.42,3.68,2.49l-1.26,1.91c-.64,1.07-2.62,4.24-6.09,9.3-1.72,2.46-4.93,6.8-9.67,13.07-1.06-.46-2.24-1.37-3.52-2.78h-.01ZM816.32,236.43c-1.1.1-2.09-.23-2.99-.98-.85-.71-1.34-1.63-1.49-2.77-.11-1.19.18-2.14.89-2.98.71-.85,1.63-1.34,2.78-1.4s2.14.27,2.99.98c.9.75,1.39,1.68,1.49,2.77.15,1.14-.18,2.14-.89,2.98s-1.59,1.29-2.78,1.4Z"/>
    </g>
  </g>
  <g class="st0">
    <g class="st0">
      <path class="st1" d="M813.86,281.5c-1.58-.66-3.37-2.1-5.44-4.34-1.77-1.9-2.85-3.55-3.08-4.94-.69-3.7,1.02-7.5,5.16-11.34.76-.71,1.62-1.41,2.52-2.16,2.84-2.1,5.91-3.09,9.3-2.87,3.3.21,6.06,1.47,8.18,3.75,2.03,2.19,3.27,4.85,3.37,8.12l.04,1.29-4.5,1.07-.06-2.16c-.09-2.58-.58-4.16-1.47-4.83-4.12-2.82-8.12-2.74-12.05.19-1.09.83-2.08,1.58-2.89,2.33-2.48,2.3-3.51,4.23-3.2,5.72.11.69.9,1.73,2.36,3.21,1.46,1.57,2.66,2.49,3.48,2.79,2.67,1.07,5.4,1.9,8.36,2.43l-2.78,4.26c-1.41-.28-3.86-1.11-7.3-2.53h0Z"/>
    </g>
  </g>
  <g class="st0">
    <g class="st0">
      <path class="st1" d="M835.71,305.3c.11-.07,3.29-1.71,9.17-5.55,4.35-2.86,10.28-7.25,18.2-12.74,3.4-2.3,6.91-4.9,10.7-7.81l1.74-1.4c1.04.74,2.14,2.36,3.42,4.92l-1.79,1.43c-4.23,2.04-8.07,4.22-11.57,6.58-5.45,3.81-11.49,8.27-18.36,12.84-2.62,1.69-5.35,3.07-7.97,4.77-4.13,2.58-6.56,4.46-7.34,5.45l-3.03-4.25s3.94-2.39,6.84-4.25h-.01Z"/>
    </g>
  </g>
  <g class="st0">
    <g class="st0">
      <path class="st1" d="M851.45,337.71c-3.95-1.01-6.67-3.11-8.11-6.52-1.51-3.59-1.24-7.44.91-11.38,1.96-3.72,4.86-6.35,8.57-7.92,3.35-1.41,6.81-1.39,10.29.17,3.45,1.5,5.79,4.04,6.99,7.55.75,2.43.65,5.22-.43,8.5-.96,3.08-2.35,5.29-4.04,6.64-1.04.86-2.19,1.49-3.45,2.02-3.53,1.49-7.13,1.81-10.74.94h.01ZM862.84,331.29c1.35-1.14,2.34-2.82,2.81-5.2.56-2.35.43-4.48-.37-6.4-.83-1.97-2.24-3.14-4.25-3.56-1.99-.36-3.9-.89-5.28-.31-.48.2-1.47.69-2.98,1.47-1.96,1.04-3.47,3.3-4.41,5.74-.77,2.02-.59,4.12-.12,5.9.35,1.33,1.15,2.55,2.39,3.5.99.85,2.04,1.32,3.08,1.45,1.9.33,4.11-.11,6.8-1.25.96-.4,1.68-.85,2.33-1.33h0Z"/>
    </g>
  </g>
  <g class="st0">
    <g class="st0">
      <path class="st1" d="M854.92,362.84c-1.06-1.35-1.9-3.48-2.61-6.45-.6-2.53-.74-4.5-.26-5.81,1.22-3.56,4.57-6.03,10.06-7.35,1.01-.24,2.1-.44,3.25-.64,3.5-.44,6.66.21,9.51,2.07,2.77,1.81,4.56,4.25,5.28,7.28.69,2.91.46,5.83-1.05,8.73l-.59,1.14-4.44-1.27,1.01-1.91c1.19-2.29,1.54-3.91,1.09-4.93-2.21-4.48-5.73-6.38-10.59-5.75-1.36.19-2.59.35-3.66.61-3.28.79-5.14,1.96-5.59,3.41-.24.66-.07,1.95.48,3.96.5,2.08,1.1,3.48,1.66,4.14,1.8,2.24,3.77,4.31,6.09,6.22l-4.51,2.35c-1.09-.94-2.82-2.86-5.12-5.79h-.01Z"/>
    </g>
  </g>
  <g class="st0">
    <g class="st0">
      <path class="st1" d="M850.64,392.92l8.36-.59c-3.27-2.27-5.25-4.87-5.46-8.11-.18-2.85.51-5.24,2.08-7.29,1.68-2.19,4.01-3.44,7.06-3.64,1.04-.07,2.15,0,3.27.18,3.09.52,5.58,1.73,7.32,3.51,1.67,1.72,2.52,3.81,2.67,6.21.17,2.72-.57,5.37-2.29,7.95l5.38-.41c2.78-.24,3.95-.32,4.78-.5,2.38-.48,3.75-1.47,4.05-2.79.16-.6.18-1.18.14-1.83-.05-.78-.11-1.69-.29-2.58-.19-.96-.52-1.98-1.11-3.05-.87-1.44-1.65-2.37-2.27-2.91.42-.61,1.24-.99,2.45-1.39,1.15-.33,2.11-.59,2.95-.64,1.97,2.35,3,5.27,3.23,8.84.1,1.62-.06,3.19-.49,4.65-.68,2.65-2.44,4.58-5.37,5.61-1.65.69-4.29,1.05-7.79,1.28-1.36.09-2.86.12-5.91.24-3.11.13-4.48.22-6.1.32-7.78.49-12.26,1.62-13.64,3.53-1.99-2.67-3.03-4.75-3.02-6.58h0ZM872.05,383.62c-.22-3.5-4.66-5.82-7.77-5.62-4.93.31-6.85,2.78-6.64,6.08.21,3.37,4.97,6.52,7.88,7.24l2.18.51,1.76-1.93c1.46-1.59,2.74-4.01,2.59-6.28Z"/>
    </g>
  </g>
  <g class="st0">
    <g class="st0">
      <path class="st1" d="M862.22,408.69c.13,0,3.69.41,10.71.49,5.2.04,12.57-.32,22.21-.48,4.1-.02,8.47-.23,13.24-.54l2.22-.2c.45,1.2.47,3.15.11,5.99l-2.29.19c-4.65-.66-9.05-.98-13.28-.96-6.64.14-14.14.49-22.4.46-3.12-.05-6.16-.42-9.28-.47-4.87-.15-7.94.06-9.13.45l-.15-5.21s4.61.2,8.05.27h0Z"/>
    </g>
  </g>
  <g class="st0">
    <g class="st0">
      <path class="st1" d="M886.35,464.25l2.26-.12c1.97-.06,3.49-.18,4.55-.36,2-.39,3.3-.97,3.86-1.76.57-.85.91-1.57,1.06-2.13.28-1-.22-1.88-1.51-2.58-1.68-1-4.17-1.96-7.43-2.87-3.44-.95-9.12-2.12-16.94-3.55-.19,1.9-.29,4.44-.4,7.77l-.07,2.2c-1.48.47-3,.38-4.52-.24l.07-2.2.5-8.35c-4.2-.89-8.32-1.83-12.54-2.67-5.03-1.06-9.28-1.76-12.67-2.17l-2.3-.23c-.28-1.42-.15-2.87.49-4.45l2.21.28c2.23.21,5.86.75,10.82,1.58.39.04,5.22,1.11,14.62,3.17.18-.89.43-2.51.75-4.64,1.13-.43,2.62-.22,4.46.7l-.21,1.02-.6,3.88c3.99.91,7.59,1.56,10.72,2.16,3.91.75,6.63,1.37,8.2,1.8,8.38,2.32,11.92,5.86,10.62,10.56-.29,1.06-.81,2.2-1.61,3.39-1.26,1.88-3.4,3.03-6.47,3.66-1.28.25-3.82.42-7.64.58-.56-1.37-.64-2.8-.25-4.45l-.03.02Z"/>
    </g>
  </g>
  <g class="st0">
    <g class="st0">
      <path class="st1" d="M842.44,484.24c-1.95-3.58-2.26-7-.74-10.38,1.6-3.55,4.61-5.97,8.96-7.08,4.05-1.09,7.96-.76,11.63.9,3.32,1.49,5.66,4.04,6.88,7.66,1.25,3.55.98,6.99-.78,10.26-1.28,2.2-3.38,4.03-6.52,5.47-2.91,1.4-5.47,1.88-7.61,1.56-1.34-.18-2.58-.59-3.83-1.15-3.49-1.57-6.18-3.99-8-7.23h.01ZM854.89,488.21c1.75.22,3.65-.21,5.72-1.48,2.1-1.19,3.58-2.73,4.43-4.63.88-1.95.78-3.78-.28-5.54-1.09-1.7-2-3.47-3.36-4.08-.47-.21-1.51-.61-3.1-1.18-2.09-.73-4.78-.3-7.21.67-2,.81-3.42,2.38-4.4,3.93-.74,1.16-1.09,2.57-.94,4.14.05,1.31.42,2.4,1.03,3.24,1.05,1.61,2.88,2.94,5.54,4.14.95.43,1.77.65,2.56.8h0Z"/>
    </g>
  </g>
  <g class="st0">
    <g class="st0">
      <path class="st1" d="M825.82,510.79c-1.3-3.87-1.02-7.29,1.06-10.35,2.19-3.22,5.57-5.09,10.04-5.43,4.18-.38,7.97.63,11.31,2.89,3.01,2.04,4.87,4.96,5.45,8.73.62,3.72-.24,7.06-2.54,9.98-1.64,1.95-4.03,3.39-7.37,4.26-3.11.87-5.72.91-7.76.22-1.29-.41-2.44-1.03-3.57-1.8-3.17-2.15-5.4-5-6.63-8.5h0ZM837.41,516.85c1.69.52,3.64.43,5.89-.47,2.28-.81,4-2.07,5.17-3.79,1.2-1.77,1.42-3.59.68-5.51-.78-1.86-1.37-3.76-2.61-4.6-.43-.29-1.38-.86-2.85-1.7-1.94-1.08-4.66-1.12-7.22-.58-2.11.45-3.78,1.75-5.02,3.11-.93,1.02-1.52,2.35-1.64,3.91-.17,1.3,0,2.43.46,3.37.76,1.77,2.33,3.39,4.75,5.03.86.58,1.63.95,2.38,1.23h0Z"/>
    </g>
  </g>
  <g class="st0">
    <g class="st0">
      <path class="st1" d="M793.98,522.65c1.9,1.86,4.59,4.41,8.12,7.67.83-4.1,2.72-7.61,5.72-10.39,2.55-2.42,5.38-3.46,8.42-3.12,2.67.25,5.16,1.6,7.53,3.91,2.6,2.54,4.29,5.56,5.1,9.08,1.11,4.81.05,8.96-3.31,12.39-1.68,1.72-3.92,2.98-6.66,3.93,2.37,2.32,3.76,3.77,4.27,4.18,1.21,1.18,3.2,2.86,6.02,4.99,2.69,2.08,4.68,3.67,5.93,4.9,1.53,1.5,2.88,3.09,3.91,4.73-1.4,1.9-2.82,2.97-4.28,3.26l-1.17-1.87c-.79-1.32-1.96-2.64-3.44-4.1-1.11-1.09-2.83-2.59-5.1-4.45-2.46-1.95-4.12-3.4-4.96-4.22-3.53-3.45-8.07-7.9-13.69-13.13-2.69-2.54-5.52-4.95-8.3-7.4-3.11-2.77-5.65-4.53-7.5-5.34.49-1.52,1.62-3.23,3.39-5.04v.02ZM815.22,542.54l.14.05c3.34-.91,5.45-1.85,6.21-2.91,1.77-2.18,2.43-4.99,1.98-8.24-.45-3.35-1.72-6.04-3.81-8.09-2.97-2.91-5.95-2.92-8.87-.14-2.59,2.46-4.16,5.92-4.71,10.38l-.69-.04,3.85,3.5c1.21,1,3.11,2.86,5.89,5.49h.01Z"/>
    </g>
  </g>
</svg>